<?xml version="1.0" encoding="utf-8"?>
<!-- Generator: Adobe Illustrator 19.0.0, SVG Export Plug-In . SVG Version: 6.00 Build 0)  -->
<svg version="1.1" id="图层_1" xmlns="http://www.w3.org/2000/svg" xmlns:xlink="http://www.w3.org/1999/xlink" x="0px" y="0px"
	 viewBox="-270 393.9 54 54" style="enable-background:new -270 393.9 54 54;" xml:space="preserve">
<style type="text/css">
	.st0{fill:#FFFFFF;}
</style>
<g>
	<g>
		<path class="st0" d="M-234.2,413.3c0.6,0,1.1,0,1.7,0.1c-1.5-7.1-9.2-12.4-17.9-12.4c-9.7,0-17.7,6.6-17.7,15
			c0,4.9,2.7,8.9,7.1,11.9l-1.8,5.3l6.2-3.1c2.2,0.4,4,0.9,6.2,0.9c0.6,0,1.1,0,1.7-0.1c-0.3-1.2-0.5-2.4-0.5-3.7
			C-249.2,419.6-242.6,413.3-234.2,413.3z M-243.7,408.5c1.3,0,2.2,0.9,2.2,2.2c0,1.3-0.9,2.2-2.2,2.2c-1.3,0-2.7-0.9-2.7-2.2
			C-246.3,409.4-245,408.5-243.7,408.5z M-256.1,413c-1.3,0-2.7-0.9-2.7-2.2c0-1.3,1.3-2.2,2.7-2.2c1.3,0,2.2,0.9,2.2,2.2
			C-253.8,412.1-254.7,413-256.1,413z"/>
		<path class="st0" d="M-218,427.1c0-7.1-7.1-12.8-15-12.8c-8.4,0-15.1,5.8-15.1,12.8c0,7.1,6.6,12.8,15.1,12.8
			c1.8,0,3.5-0.4,5.3-0.9l4.9,2.7l-1.3-4.4C-220.6,434.7-218,431.1-218,427.1z M-237.9,424.9c-0.9,0-1.8-0.9-1.8-1.8
			c0-0.9,0.9-1.8,1.8-1.8c1.3,0,2.2,0.9,2.2,1.8C-235.7,424.1-236.6,424.9-237.9,424.9z M-228.2,424.9c-0.9,0-1.8-0.9-1.8-1.8
			c0-0.9,0.9-1.8,1.8-1.8c1.3,0,2.2,0.9,2.2,1.8C-226,424.1-226.9,424.9-228.2,424.9z"/>
	</g>
</g>
</svg>
